<?xml version="1.0" encoding="utf-8"?>
<!-- Generator: Adobe Illustrator 28.0.0, SVG Export Plug-In . SVG Version: 6.00 Build 0)  -->
<svg version="1.1" id="Capa_1" xmlns="http://www.w3.org/2000/svg" xmlns:xlink="http://www.w3.org/1999/xlink" x="0px" y="0px"
	 viewBox="0 0 230 40" style="enable-background:new 0 0 230 40;" xml:space="preserve">
<style type="text/css">
	.st0{fill:#00A7AA;}
	.st1{fill:none;stroke:#1D1D1B;stroke-width:1.4628;stroke-miterlimit:10;}
	.st2{fill:#F8C500;}
	.st3{fill:#1D1D1B;}
</style>
<g>
	<g>
		<path class="st0" d="M30,35.7V32l0.3-4.1c-2,5.6-7.8,8.2-12.8,8.1C9.6,36,3,30.4,3,21.3c0-9,6.5-14.7,14.4-14.7
			c5.3,0,11.3,2.8,12.9,8.5L30,10.4V6.9h1.7v28.7H30z M4.7,21.3c0,8.2,5.9,13,12.9,13c8.7,0,12.4-6.3,12.4-13.3
			c0-6.7-4.2-12.7-12.7-12.7C10.4,8.3,4.7,13.1,4.7,21.3z"/>
		<path class="st0" d="M59.9,35.7l-0.2-4.6c-2.6,3.5-6,5-10,5.1c-7.3,0-12.5-4.9-12.5-13.3V6.9h4.8v15.8c0,5.5,3.3,9,8.7,9
			c5.2-0.1,8.8-4.2,8.8-9.4V6.9h4.8v28.7H59.9L59.9,35.7z"/>
		<path class="st0" d="M77.2,6.4v23.3h14.6v6H70.7V6.4H77.2z"/>
		<path class="st0" d="M116.2,6.9h10.1v28.7h-9.9l-0.5-3.1c-2.4,2.8-6.3,3.8-9.5,3.6c-8.4-0.5-13.1-6.5-13.1-14.9
			c0-8.5,5.6-15,14-15c4.1,0,6.9,1.4,8.4,3.7L116.2,6.9z M103.9,21.3c0,4,2.6,6.3,5.8,6.3c3.6,0,5.9-2.9,5.9-6.3
			c0-3.8-2.2-6.3-5.9-6.3C106.5,14.9,103.9,17.3,103.9,21.3z"/>
	</g>
	<g>
		<g>
			<line class="st1" x1="134.8" y1="0.9" x2="134.8" y2="39.5"/>
		</g>
		<g>
			<path class="st2" d="M228.8,25.3c-0.2-0.4-0.7-0.6-1.1-0.6c-4.5,0.3-32.5,1.7-48.9,9.2c-1.3,0.6,4.7,0.8,5.6,0.4
				c21.2-8.2,40.3-8.5,43-8.7C227.8,25.7,229,25.6,228.8,25.3z"/>
			<g>
				<path class="st3" d="M149.7,11.9c-0.1-0.1-0.2-0.2-0.3-0.2c-0.3-0.2-0.7-0.3-1.1-0.5c-0.4-0.1-0.8-0.2-1.2-0.4
					c-0.4-0.1-0.7-0.2-1-0.4c-0.3-0.1-0.4-0.3-0.5-0.5c0-0.1,0-0.2,0-0.3c0.1-0.2,0.2-0.3,0.4-0.5c0.2-0.2,0.4-0.3,0.6-0.5
					c0.2-0.2,0.5-0.3,0.7-0.4c0.3-0.1,0.5-0.2,0.8-0.2c0.2,0,0.4,0,0.6,0c0.1,0,0.1,0,0.2,0.1c0.1,0.1,0.2,0.1,0.3,0.2
					c0.2,0.1,0.5,0.1,0.7-0.1c0.1-0.1,0.2-0.2,0.2-0.3c0-0.1,0-0.2-0.1-0.3c0,0-0.1-0.1-0.1-0.1c-0.1,0-0.2-0.1-0.2-0.2
					c-0.1-0.1-0.3-0.2-0.5-0.2c-0.4-0.1-0.8-0.1-1.2,0c-0.4,0.1-0.8,0.2-1.2,0.4c-0.4,0.2-0.7,0.4-1.1,0.6c-0.3,0.2-0.6,0.5-0.8,0.7
					c-0.2,0.3-0.4,0.5-0.5,0.8c-0.1,0.3-0.1,0.5,0,0.7c0,0.2,0.2,0.4,0.4,0.5c0.2,0.1,0.4,0.2,0.6,0.3c0.2,0.1,0.5,0.2,0.7,0.3
					c0.3,0.1,0.5,0.2,0.8,0.2l0.6,0.2c0.2,0.1,0.3,0.1,0.4,0.1c0.1,0,0.3,0.1,0.5,0.2c0.2,0.1,0.3,0.1,0.4,0.2
					c0.1,0.1,0.1,0.1,0.1,0.2c0,0,0,0.1-0.1,0.2c-0.2,0.2-0.4,0.4-0.7,0.6c-0.3,0.2-0.7,0.3-1,0.5c-0.4,0.1-0.8,0.2-1.2,0.3
					c-0.4,0.1-0.8,0.1-1.1,0.1c-0.2,0-0.5,0-0.7,0c-0.3,0-0.5-0.1-0.6-0.1c-0.1,0-0.2-0.1-0.2-0.2c0,0,0-0.1,0.2-0.3
					c0.1-0.1,0.3-0.3,0.5-0.4c0.2-0.1,0.4-0.3,0.6-0.4c0,0,0,0,0.1-0.1c0.1-0.2,0.2-0.3,0.1-0.4c0-0.1-0.1-0.2-0.2-0.3
					c-0.1,0-0.4-0.1-0.7,0.1l-1.1,0.8c-0.3,0.3-0.5,0.5-0.6,0.8c0,0.2,0,0.5,0.2,0.7c0.1,0.2,0.3,0.3,0.6,0.4
					c0.2,0.1,0.5,0.2,0.7,0.2c0.2,0,0.4,0,0.6,0.1c0.1,0,0.1,0,0.2,0c0.1,0,0.3,0,0.4,0c0.5,0,1-0.1,1.4-0.2
					c0.5-0.1,0.9-0.2,1.3-0.4c0.4-0.2,0.8-0.3,1.2-0.6c0.4-0.2,0.8-0.5,1.1-0.9c0.2-0.2,0.3-0.4,0.3-0.5c0-0.2,0-0.3-0.1-0.5
					C149.9,12.1,149.8,12,149.7,11.9z"/>
				<path class="st3" d="M154,10.2c0-0.2-0.1-0.3-0.2-0.4c-0.1-0.1-0.3-0.2-0.5-0.3c-0.2,0-0.5,0-0.8,0.1c-0.2,0.1-0.5,0.2-0.6,0.4
					c-0.2,0.2-0.3,0.4-0.4,0.5c-0.1,0.2-0.2,0.4-0.3,0.5c-0.1,0.2-0.1,0.3-0.2,0.3c0,0.1-0.1,0.1-0.1,0.2l0,0.1
					c-0.1,0-0.2,0.1-0.2,0.2c-0.1,0.1-0.1,0.2,0,0.3c-0.1,0.2-0.1,0.4-0.2,0.7c0,0.3,0,0.6,0,0.9c0.1,0.3,0.2,0.5,0.4,0.7
					c0.2,0.2,0.5,0.2,0.8,0.2c0.1,0,0.2,0,0.2,0c0.2,0,0.4-0.1,0.6-0.2c0.2-0.1,0.4-0.2,0.5-0.3c0.2-0.1,0.3-0.2,0.4-0.3
					c0.1-0.1,0.2-0.2,0.4-0.3c0.1-0.1,0.1-0.2,0.1-0.3c0-0.1-0.1-0.2-0.2-0.2c-0.1,0-0.3-0.1-0.6,0.1c0,0-0.1,0-0.1,0.1
					c-0.4,0.3-0.7,0.5-0.9,0.6c-0.2,0.1-0.3,0.1-0.4,0.1c-0.1,0-0.1,0-0.2-0.1c-0.1-0.1-0.1-0.3-0.2-0.4c0-0.2,0-0.4,0-0.6
					c0-0.1,0-0.1,0-0.2c0.1,0,0.2,0,0.3,0.1c0.1,0,0.3,0,0.5-0.1c0.3-0.1,0.6-0.2,0.9-0.4c0.3-0.2,0.5-0.4,0.7-0.6
					c0.2-0.2,0.3-0.4,0.4-0.6c0.1-0.2,0.1-0.4,0.1-0.6C154.1,10.5,154.1,10.4,154,10.2z M153.1,11.1c-0.1,0.2-0.2,0.3-0.3,0.5
					c-0.1,0.1-0.3,0.3-0.4,0.4c-0.1,0.1-0.3,0.1-0.5,0.2c-0.1,0-0.1,0-0.1,0c-0.1,0-0.1-0.1-0.2-0.1c0.1-0.2,0.2-0.4,0.3-0.6
					c0.1-0.2,0.3-0.5,0.5-0.7c0,0,0,0,0,0c0.2-0.2,0.3-0.3,0.3-0.3c0.1,0,0.2,0,0.2,0c0.1,0,0.1,0.1,0.2,0.1
					c0.1,0.1,0.1,0.2,0.1,0.3C153.2,10.8,153.1,11,153.1,11.1z"/>
				<path class="st3" d="M155.6,14c0.4-0.4,0.8-0.9,1.1-1.3c0.2-0.3,0.4-0.5,0.6-0.8c0,0,0,0,0,0c-0.1,0.2-0.2,0.4-0.3,0.6
					c-0.1,0.2-0.1,0.4-0.1,0.6c0,0.2,0.1,0.4,0.2,0.5c0,0,0,0,0,0c0.1,0.1,0.3,0.1,0.4,0c0.3-0.1,0.6-0.3,0.9-0.5
					c0.2-0.2,0.3-0.3,0.5-0.5c0,0,0,0.1,0,0.1c-0.1,0.3-0.1,0.5-0.2,0.7c0,0.2,0,0.4,0.1,0.6c0.1,0.2,0.2,0.4,0.5,0.5
					c0.1,0,0.1,0,0.2,0c0.1,0,0.3,0,0.4-0.1c0.2-0.1,0.2-0.3,0.1-0.5c0,0,0,0-0.1-0.1c-0.1-0.1-0.2-0.2-0.2-0.3c0-0.2,0-0.3,0-0.5
					c0-0.2,0.1-0.4,0.2-0.7c0.1-0.2,0.2-0.5,0.3-0.7c0.1-0.2,0.2-0.5,0.3-0.7c0.1-0.2,0.2-0.5,0.2-0.7c0-0.3-0.5-0.4-0.9-0.1
					c-0.2,0.2-0.4,0.4-0.6,0.7c-0.2,0.3-0.4,0.5-0.6,0.8c-0.2,0.3-0.4,0.5-0.6,0.7c0,0,0,0,0,0c0-0.1,0.1-0.2,0.1-0.3
					c0-0.1,0.1-0.2,0.1-0.3c0-0.1,0.1-0.2,0.2-0.4c0.1-0.2,0.2-0.4,0.3-0.5c0.1-0.2,0.1-0.4,0.2-0.5c0-0.2,0-0.4-0.1-0.5
					c0,0-0.1,0-0.1-0.1c-0.1,0-0.2-0.1-0.4,0c-0.2,0-0.3,0.1-0.5,0.3c-0.1,0.1-0.3,0.2-0.4,0.4c-0.1,0.1-0.2,0.3-0.3,0.4
					c-0.1,0.1-0.2,0.2-0.2,0.2c0,0.1-0.1,0.2-0.2,0.3l-0.3,0.4c-0.1,0.2-0.3,0.3-0.4,0.5c-0.1,0.1-0.1,0.2-0.2,0.2
					c0.1-0.2,0.2-0.4,0.3-0.7l0.3-0.8c0.1-0.3,0.2-0.5,0.3-0.7c0.1-0.2,0.2-0.4,0.3-0.6c0.1-0.3-0.2-0.4-0.4-0.4
					c-0.2,0-0.4,0.1-0.5,0.3c0,0,0,0,0,0l-0.5,1c-0.2,0.3-0.3,0.7-0.4,1l-0.4,1l-0.2,0.5c-0.1,0.2-0.1,0.3-0.1,0.5
					c0,0.2-0.1,0.3,0,0.4c0,0.1,0.2,0.2,0.2,0.2c0.1,0,0.2,0,0.4-0.1C155.1,14.5,155.2,14.4,155.6,14z"/>
				<path class="st3" d="M160.6,14.6c0.1,0.1,0.4,0.2,0.8,0.1c0.3-0.1,0.6-0.2,0.9-0.4c0.3-0.2,0.6-0.4,0.9-0.6
					c0.1-0.1,0.3-0.2,0.4-0.4c0,0.2-0.1,0.3-0.1,0.5c0,0.2,0,0.4,0.1,0.6c0.1,0.3,0.3,0.4,0.5,0.4c0.1,0,0.1,0,0.2,0
					c0.2,0,0.5-0.1,0.7-0.2c0,0,0,0,0.1,0c0.2-0.2,0.2-0.4,0.2-0.5c-0.1-0.1-0.3-0.2-0.6-0.1c0,0-0.1,0-0.1,0c0,0,0-0.1,0-0.2
					c0-0.1,0-0.3,0-0.4l0.1-0.3c0-0.1,0.1-0.2,0.1-0.4c0-0.2,0.1-0.3,0.2-0.5c0.1-0.2,0.2-0.4,0.2-0.6c0.1-0.2,0.2-0.4,0.3-0.6
					c0.1-0.2,0.2-0.3,0.3-0.5c0.1-0.2,0.2-0.3,0.2-0.5l0-0.1c0-0.1,0-0.2-0.1-0.2c0,0,0,0,0,0c-0.1-0.1-0.3-0.1-0.5-0.1
					c-0.3-0.2-0.6-0.3-1-0.3c-0.5,0-1,0.3-1.6,0.8c0,0,0,0,0,0c-0.3,0.2-0.6,0.5-0.9,0.8c-0.2,0.3-0.5,0.6-0.7,0.9
					c-0.2,0.3-0.3,0.6-0.5,0.9c-0.1,0.3-0.2,0.6-0.3,0.9C160.3,14.1,160.4,14.4,160.6,14.6z M161.5,13.3c0.1-0.4,0.3-0.8,0.6-1.2
					c0.2-0.4,0.6-0.8,1-1.2c0.1-0.1,0.2-0.2,0.3-0.3c0.1-0.1,0.3-0.2,0.4-0.3c0.1-0.1,0.3-0.1,0.4-0.2c0.1,0,0.1,0,0.2,0
					c0,0,0.1,0,0.1,0c0.1,0,0.1,0.1,0.1,0.1c0.1,0.1,0.1,0.2,0.2,0.3c0,0,0,0,0,0l-0.2,0.4c-0.1,0.1-0.1,0.2-0.2,0.3l-0.2,0.3l0,0
					c0,0,0,0,0,0c-0.1,0.2-0.2,0.3-0.3,0.5c-0.1,0.1-0.2,0.3-0.4,0.4c-0.1,0.1-0.3,0.3-0.4,0.4c-0.1,0.1-0.3,0.3-0.4,0.4
					c-0.3,0.3-0.6,0.5-0.9,0.6c-0.2,0.1-0.3,0.1-0.3,0.1c0,0,0,0,0-0.1C161.4,13.8,161.4,13.6,161.5,13.3z"/>
				<path class="st3" d="M165.6,14.1C165.6,14.1,165.6,14.2,165.6,14.1c0,0.1,0.1,0.2,0.3,0.3c0.2,0.1,0.4,0,0.5,0
					c0,0,0.1,0,0.1-0.1c0.2-0.2,0.5-0.5,0.7-0.8c0.2-0.3,0.4-0.6,0.6-0.9c0.2-0.3,0.4-0.6,0.5-0.9c0.2-0.3,0.3-0.5,0.5-0.8
					c0.1-0.2,0.3-0.4,0.4-0.5c0,0.2-0.1,0.4-0.2,0.7c-0.1,0.3-0.2,0.7-0.4,1c-0.1,0.4-0.2,0.7-0.3,1.1c-0.1,0.3-0.2,0.6-0.2,0.9
					c0,0.3,0,0.6,0.2,0.7c0.1,0.1,0.2,0.1,0.3,0.2c0.1,0.1,0.2,0.1,0.3,0.2c0.1,0,0.1,0,0.2,0c0.1,0,0.3,0,0.4-0.1
					c0.2-0.1,0.2-0.3,0.1-0.5c0,0,0,0-0.1-0.1c-0.1,0-0.2-0.1-0.3-0.2c-0.1-0.1-0.1-0.1-0.2-0.2c0,0,0,0,0,0c0,0-0.1-0.1-0.1-0.4
					c0-0.3,0.1-0.6,0.2-0.9c0.1-0.3,0.2-0.7,0.4-1.1c0.1-0.4,0.3-0.7,0.4-1c0.1-0.3,0.1-0.6,0.1-0.8c0-0.5-0.4-0.5-0.6-0.5
					c-0.3,0-0.6,0.1-0.9,0.3c-0.2,0.2-0.4,0.4-0.7,0.7c-0.2,0.3-0.4,0.5-0.6,0.9c-0.2,0.3-0.4,0.6-0.6,0.9c0,0,0,0,0,0
					c0,0,0-0.1,0-0.1c0.1-0.3,0.2-0.5,0.3-0.8c0.1-0.3,0.2-0.5,0.3-0.8c0.1-0.3-0.2-0.4-0.4-0.4c-0.1,0-0.4,0-0.5,0.3
					c0,0,0,0.1,0,0.1c-0.1,0.3-0.2,0.6-0.3,0.9c-0.1,0.3-0.2,0.6-0.3,0.9c-0.1,0.3-0.2,0.6-0.2,0.9
					C165.7,13.5,165.6,13.8,165.6,14.1z"/>
				<path class="st3" d="M170.2,14.6c0.1,0.1,0.4,0.2,0.8,0.1c0.3-0.1,0.6-0.2,0.9-0.4c0.3-0.2,0.6-0.4,0.9-0.6
					c0.1-0.1,0.3-0.2,0.4-0.4c0,0.2-0.1,0.3-0.1,0.5c0,0.2,0,0.4,0.1,0.6c0.1,0.3,0.3,0.4,0.5,0.4c0.1,0,0.1,0,0.2,0
					c0.2,0,0.5-0.1,0.7-0.2c0,0,0,0,0.1,0c0.2-0.2,0.2-0.4,0.2-0.5c-0.1-0.1-0.3-0.2-0.6-0.1c0,0-0.1,0-0.1,0c0,0,0-0.1,0-0.2
					c0-0.1,0-0.3,0-0.4l0.1-0.3c0-0.1,0.1-0.2,0.1-0.4c0-0.2,0.1-0.3,0.2-0.5c0.1-0.2,0.2-0.4,0.2-0.6c0.1-0.2,0.2-0.4,0.3-0.6
					c0.1-0.2,0.2-0.3,0.3-0.5c0.1-0.2,0.2-0.3,0.2-0.5l0-0.1c0-0.1,0-0.2-0.1-0.2c0,0,0,0,0,0c-0.1-0.1-0.3-0.1-0.5-0.1
					c-0.3-0.2-0.6-0.3-1-0.3c-0.5,0-1,0.3-1.6,0.8c0,0,0,0,0,0c-0.3,0.2-0.6,0.5-0.9,0.8c-0.2,0.3-0.5,0.6-0.7,0.9
					c-0.2,0.3-0.3,0.6-0.5,0.9c-0.1,0.3-0.2,0.6-0.3,0.9C170,14.1,170,14.4,170.2,14.6z M171.1,13.3c0.1-0.4,0.3-0.8,0.6-1.2
					c0.2-0.4,0.6-0.8,1-1.2c0.1-0.1,0.2-0.2,0.3-0.3c0.1-0.1,0.3-0.2,0.4-0.3c0.1-0.1,0.3-0.1,0.4-0.2c0.1,0,0.1,0,0.2,0
					c0,0,0.1,0,0.1,0c0.1,0,0.1,0.1,0.1,0.1c0.1,0.1,0.1,0.2,0.2,0.3c0,0,0,0,0,0l-0.2,0.4c-0.1,0.1-0.1,0.2-0.2,0.3l-0.2,0.3l0,0
					c0,0,0,0,0,0c-0.1,0.2-0.2,0.3-0.3,0.5c-0.1,0.1-0.2,0.3-0.4,0.4c-0.1,0.1-0.3,0.3-0.4,0.4c-0.1,0.1-0.3,0.3-0.4,0.4
					c-0.3,0.3-0.6,0.5-0.9,0.6C171.1,14,171,14,171,14c0,0,0,0,0-0.1C171,13.8,171,13.6,171.1,13.3z"/>
				<path class="st3" d="M183.7,14.2c0.2,0,0.3-0.1,0.5-0.1c0.2-0.1,0.3-0.1,0.5-0.2c0.1-0.1,0.3-0.2,0.4-0.3c0,0,0,0,0,0
					c0,0,0,0.1,0,0.1c0,0.3-0.1,0.7-0.1,1c0,0,0,0,0,0.1c0,0.1,0.2,0.2,0.3,0.2c0,0,0.1,0,0.1,0c0.2,0,0.4-0.2,0.4-0.4
					c0-0.3,0.1-0.6,0.1-0.9c0.1-0.3,0.1-0.6,0.2-1l0.1-0.2c0.2-0.2,0.3-0.4,0.5-0.6c0.2-0.2,0.3-0.4,0.4-0.6
					c0.1-0.1,0.1-0.2,0.2-0.3c0.1-0.1,0.2-0.3,0.3-0.5c0.1-0.2,0.2-0.3,0.2-0.4c0.1-0.2,0.1-0.3,0.1-0.4c-0.1-0.3-0.3-0.3-0.5-0.3
					c-0.1,0-0.3,0.1-0.4,0.2c-0.1,0.1-0.2,0.1-0.3,0.2c-0.1,0.1-0.1,0.1-0.1,0.2c-0.2,0.2-0.3,0.4-0.4,0.6c-0.1,0.1-0.1,0.2-0.2,0.4
					c-0.1,0-0.1-0.1-0.2-0.1h0c-0.2-0.1-0.4,0-0.6,0c-0.2,0.1-0.4,0.1-0.5,0.2c-0.1,0.1-0.3,0.2-0.4,0.3c-0.1,0.1-0.2,0.2-0.2,0.3
					c-0.1,0.1-0.2,0.3-0.3,0.5c-0.1,0.2-0.2,0.4-0.3,0.6c-0.1,0.2-0.2,0.4-0.2,0.6c-0.1,0.2,0,0.4,0.1,0.6
					C183.3,14.1,183.5,14.2,183.7,14.2z M184,13.3c0-0.2,0.1-0.4,0.2-0.6c0.1-0.3,0.3-0.5,0.4-0.8c0.1-0.1,0.2-0.2,0.3-0.3
					c0.1-0.1,0.2-0.1,0.3-0.1c0,0,0,0,0,0c0.1,0,0.1,0,0.2,0.1c0.1,0,0.1,0.1,0.1,0.2c-0.1,0.2-0.2,0.4-0.2,0.6
					c-0.4,0.4-0.7,0.7-1,0.9c-0.2,0.2-0.3,0.2-0.4,0.3C184,13.5,184,13.4,184,13.3z"/>
				<path class="st3" d="M187.3,11.6c-0.1,0.1-0.2,0.2-0.2,0.3c-0.1,0.1-0.1,0.2-0.1,0.2c0,0-0.1,0.1-0.1,0.1c0,0,0,0,0,0
					c-0.1,0-0.1,0.1-0.2,0.2c-0.1,0.1-0.1,0.2,0,0.3c0,0.1-0.1,0.3-0.1,0.4c0,0.2,0,0.4,0,0.6c0,0.2,0.1,0.4,0.3,0.5
					c0.1,0.1,0.3,0.2,0.6,0.2c0.1,0,0.1,0,0.2,0c0.2,0,0.3-0.1,0.5-0.1c0.1-0.1,0.2-0.1,0.4-0.2c0.1-0.1,0.2-0.1,0.3-0.2
					c0.1-0.1,0.2-0.1,0.3-0.2c0.1-0.1,0.1-0.2,0.1-0.3c0-0.1-0.1-0.1-0.2-0.2c-0.1,0-0.3-0.1-0.5,0c0,0-0.1,0-0.1,0.1
					c-0.3,0.2-0.5,0.4-0.6,0.4c-0.1,0.1-0.2,0.1-0.2,0.1c0,0,0,0-0.1-0.1c0-0.1-0.1-0.2-0.1-0.3c0-0.1,0-0.2,0-0.4c0,0,0,0,0.1,0
					c0.1,0,0.2,0,0.4,0c0.2-0.1,0.4-0.2,0.6-0.3c0.2-0.1,0.3-0.2,0.5-0.4c0.1-0.1,0.2-0.3,0.3-0.4c0.1-0.2,0.1-0.3,0.1-0.5l-0.1-0.2
					c0-0.1-0.1-0.2-0.2-0.3c-0.1-0.1-0.2-0.2-0.4-0.2c-0.2,0-0.4,0-0.6,0.1c-0.2,0.1-0.3,0.2-0.5,0.3
					C187.5,11.4,187.4,11.5,187.3,11.6z M187.9,12.1c0.1-0.2,0.2-0.3,0.3-0.5c0.1-0.1,0.2-0.2,0.2-0.2c0,0,0,0,0.1,0.1
					c0,0,0,0.1,0,0.1c0,0,0,0.1-0.1,0.2c0,0.1-0.1,0.2-0.2,0.3c-0.1,0.1-0.2,0.2-0.2,0.2c-0.1,0-0.1,0.1-0.2,0.1c0,0-0.1,0-0.1-0.1
					C187.8,12.3,187.8,12.2,187.9,12.1z"/>
				<path class="st3" d="M191.4,14.5C191.4,14.5,191.4,14.5,191.4,14.5c0.2,0,0.4-0.1,0.5-0.2c0,0,0.1-0.1,0.1-0.1
					c0.1-0.4,0.2-0.7,0.4-1.1c0.2-0.4,0.3-0.7,0.5-1.1c0.2-0.4,0.3-0.7,0.5-1.1c0.2-0.4,0.4-0.7,0.6-1.1c0-0.1,0-0.1,0-0.2
					c0,0,0,0,0-0.1c0,0,0,0,0,0c0,0-0.1-0.1-0.1-0.1c-0.1,0-0.2,0-0.3,0c-0.2,0-0.3,0.1-0.4,0.3c-0.2,0.4-0.4,0.8-0.5,1.1
					c-0.2,0.4-0.4,0.8-0.5,1.1c-0.2,0.4-0.3,0.8-0.5,1.1c-0.2,0.4-0.3,0.8-0.4,1.2C191,14.4,191.2,14.5,191.4,14.5z"/>
				<path class="st3" d="M193.5,11.8c-0.2,0.2-0.3,0.4-0.4,0.6c-0.1,0.2-0.2,0.4-0.3,0.6c-0.1,0.2-0.1,0.4-0.2,0.6
					c-0.1,0.3,0,0.5,0.1,0.6c0.2,0.1,0.4,0.2,0.7,0.1c0.2,0,0.4-0.1,0.6-0.3c0.2-0.1,0.4-0.3,0.6-0.4c0,0,0,0,0,0c0,0,0,0.1,0,0.1
					c0,0.2,0,0.3,0,0.4c0.1,0.2,0.2,0.3,0.4,0.3c0.1,0,0.1,0,0.2,0c0.2,0,0.3-0.1,0.6-0.2c0,0,0,0,0.1,0c0.2-0.1,0.2-0.3,0.1-0.4
					c-0.1-0.1-0.3-0.2-0.5-0.1c0-0.1,0-0.1,0-0.2l0-0.2c0-0.1,0-0.2,0.1-0.3c0-0.1,0.1-0.2,0.1-0.3c0-0.1,0.1-0.3,0.2-0.4
					c0.1-0.1,0.1-0.3,0.2-0.4c0.1-0.1,0.1-0.2,0.2-0.3c0.1-0.1,0.1-0.2,0.2-0.4c0-0.1,0-0.2-0.1-0.2c0,0,0,0,0,0
					c-0.1-0.1-0.2-0.1-0.4-0.1c-0.2-0.2-0.5-0.2-0.7-0.2c-0.3,0-0.7,0.2-1.2,0.5c0,0,0,0,0,0C193.9,11.5,193.7,11.6,193.5,11.8z
					 M194.5,11.8c0,0,0.1-0.1,0.2-0.2c0.1-0.1,0.2-0.1,0.3-0.2c0.1,0,0.2-0.1,0.2-0.1c0,0,0,0,0,0c0,0,0,0,0.1,0
					c0,0.1,0.1,0.1,0.1,0.2c0,0,0,0,0,0l-0.1,0.2c0,0.1-0.1,0.1-0.1,0.2l-0.1,0.2c0,0,0,0,0,0c-0.1,0.1-0.1,0.2-0.2,0.3
					c-0.1,0.1-0.1,0.2-0.2,0.3c-0.1,0.1-0.2,0.2-0.3,0.3c-0.1,0.1-0.2,0.2-0.3,0.3c-0.2,0.2-0.4,0.3-0.5,0.4c0,0,0,0-0.1,0
					c0-0.1,0-0.1,0.1-0.3c0.1-0.3,0.2-0.5,0.4-0.8C194,12.3,194.2,12.1,194.5,11.8z"/>
				<path class="st3" d="M182.2,8.7c-0.3-0.3-0.8-0.4-1.3-0.2c-3.1,0.7-7.5,14.1-7.5,14.1l-0.3-0.3c-0.1-0.1-0.2-0.1-0.3-0.2
					c-0.3-0.3-0.8-0.4-1.3-0.5l0,0c-0.6,0-1.2,0.1-1.8,0.3c-0.5,0.2-1,0.5-1.5,0.8c-0.5,0.3-0.9,0.7-1.2,1.1
					c-0.3,0.4-0.6,0.7-0.8,1.1c-0.3,0.4-0.6,1-0.9,1.7c-0.4,0.7-0.7,1.4-1,2.2c-0.3,0.8-0.5,1.5-0.6,2.1c-0.1,0.4,0,0.8,0,1.1
					c0,0-0.1,0-0.1,0c-0.7,0.4-1.4,0.7-2.3,1.1c-0.9,0.4-1.7,0.6-2.5,0.8c-0.7,0.2-1.4,0.2-1.9,0.1c-0.5-0.1-0.7-0.3-0.8-0.8
					c0-0.2,0-0.5,0-0.7c0-0.3,0.1-0.5,0.1-0.8c0.1-0.7,0.4-1.5,0.6-2.3c0.2-0.7,0.5-1.5,0.9-2.2c0.3-0.1,0.8-0.2,1.2-0.3l1.7-0.4
					c0.6-0.1,1.2-0.3,1.7-0.4c0.6-0.2,1-0.3,1.4-0.4c0.5-0.2,0.7-0.4,0.7-0.6c0-0.2,0-0.3-0.1-0.4c-0.2-0.2-0.5-0.1-0.7-0.1
					c-0.5,0.1-1,0.3-1.6,0.4l-3.4,0.8c-0.2,0-0.4,0.1-0.5,0.1c0.2-0.5,0.5-1,0.7-1.5l1.1-2.1c0.1-0.1,0.1-0.3,0.3-0.5l0.4-0.7
					c0.1-0.3,0.3-0.5,0.4-0.8c0.1-0.2,0.2-0.4,0.3-0.6c0.5-0.1,3.7-0.8,4.3-0.9c0.7-0.2,1.4-0.3,2.1-0.5l2.1-0.5
					c0.7-0.2,1.3-0.3,1.8-0.4c0.4-0.1,0.6-0.3,0.7-0.6c0.1-0.2,0-0.3-0.1-0.4c-0.1-0.2-0.4-0.2-0.5-0.2l-0.1,0
					c-0.7,0.2-1.4,0.4-2.2,0.5c-0.8,0.2-1.7,0.4-2.5,0.6c-0.8,0.2-1.7,0.4-2.5,0.5c-0.8,0.2-4.3,0.9-4.9,1c-0.4,0.1-0.7,0.3-0.8,0.6
					c-0.1,0.2,0,0.4,0.1,0.4c0.2,0.2,0.5,0.1,0.6,0.1l0.2,0c0,0,0,0.1-0.1,0.1c-0.1,0.3-0.3,0.5-0.4,0.8l-0.4,0.7
					c-0.1,0.2-0.2,0.4-0.3,0.5l-1.1,2.2c-0.3,0.7-0.7,1.3-1,2l0,0c-0.4,0.1-0.7,0.3-0.8,0.6c-0.1,0.2,0,0.4,0.1,0.4
					c0.1,0.1,0.1,0.1,0.2,0.1c-0.3,0.7-0.6,1.3-0.8,2c-0.3,0.8-0.5,1.6-0.7,2.4c-0.2,1.1-0.1,1.9,0.4,2.4c0.4,0.5,1.1,0.8,2,0.9
					c0,0,0,0,0,0c0.9,0,1.9-0.1,3.1-0.5c1.2-0.4,2.5-0.9,3.9-1.7c0.1-0.1,0.2-0.2,0.3-0.2c0.2,0.1,0.5,0.1,0.9,0
					c0.4-0.1,0.9-0.3,1.4-0.5c0.5-0.3,1-0.6,1.4-0.9c0.5-0.4,0.9-0.7,1.2-1c0.5-0.5,1-0.9,1.4-1.4c0.1-0.1,0.3-0.3,0.4-0.4
					c-0.1,0.7-0.2,1.5-0.3,2.2c-0.1,1.1-0.1,2.2-0.1,3.3l0,0.1c0.1,0.1,0.2,0.2,0.4,0.3c0.1,0,0.2,0,0.4-0.1
					c0.5-0.2,0.6-0.5,0.6-0.7c0-1,0.1-2.1,0.2-3.2c0.1-1.1,0.3-2.2,0.5-3.3l0.3-1c0.6-0.7,1.1-1.4,1.6-2.1
					C175.3,23.5,183.4,9.8,182.2,8.7z M171.9,26.2c-1.4,1.6-2.6,2.8-3.6,3.6c-0.9,0.8-1.7,1.4-2.2,1.6c-0.2,0.1-0.6,0.2-0.7,0.1
					c-0.1-0.1-0.2-0.4-0.1-1.1c0.1-0.6,0.4-1.4,0.7-2.3c0.4-0.9,0.9-1.9,1.5-3c0.3-0.6,0.8-1.1,1.3-1.5c0.5-0.4,1.1-0.6,1.6-0.7
					c0.2,0,0.5-0.1,0.7-0.1c0.3,0,0.5,0.1,0.7,0.2c0.3,0.1,0.6,0.4,0.7,0.8C172.3,24.6,172.1,25.4,171.9,26.2z M174.5,22.5
					c0.2-0.5,4.7-12.9,6.1-12.2C181.4,10.7,174.7,22.2,174.5,22.5z"/>
				<path class="st3" d="M213.7,12.7c0.2,0,0.5-0.1,0.6-0.2c0.2-0.1,0.4-0.2,0.5-0.4c0.1-0.2,0.2-0.4,0.1-0.6
					c-0.1-0.2-0.2-0.3-0.5-0.2l0,0c-0.3,0-0.4,0.1-0.5,0.1c-0.1,0-0.2,0.1-0.3,0.1l-0.2,0.1l0,0.1c0,0,0,0.1,0,0.1
					c-0.1,0.1-0.2,0.4,0,0.6C213.3,12.5,213.4,12.6,213.7,12.7z"/>
				<path class="st3" d="M213.4,14.8L213.4,14.8c0.1-0.3,0-0.4-0.1-0.5c-0.1-0.1-0.2-0.2-0.5-0.1c-0.3,0-0.5,0.2-0.7,0.5l0,0.1
					c-0.4,0.8-0.7,1.6-1.1,2.4c-0.4,0.8-0.8,1.7-1.1,2.5c-0.1,0.3-0.3,0.7-0.4,1c-0.2,0-0.3,0.1-0.5,0.2l-0.8,0.8
					c-0.4,0.3-0.8,0.7-1.2,1.1c-0.5,0.4-0.9,0.8-1.4,1.1c-0.5,0.3-0.9,0.6-1.3,0.8c-0.4,0.2-0.7,0.3-1,0.3c-0.2,0-0.3,0-0.4-0.2
					c-0.1-0.4-0.1-0.9,0-1.5c0.1-0.7,0.4-1.4,0.7-2.1c0.3-0.7,0.7-1.5,1.1-2.2c0.4-0.7,0.8-1.4,1.3-1.9c0.4-0.6,0.9-1.1,1.4-1.5
					c0.5-0.4,0.9-0.6,1.2-0.7c0.3-0.1,0.4,0,0.5,0.1c0,0,0.1,0.3-0.2,1.1l0,0.1l0,0.1c0,0.1,0,0.3,0.1,0.3c0.1,0.1,0.3,0.1,0.4,0.1
					c0.3,0,0.5-0.2,0.7-0.4l0.1-0.1c0.4-1,0.5-1.7,0.2-2.1c-0.2-0.3-0.6-0.6-1.5-0.4c-0.6,0.1-1.2,0.5-2,1c-0.7,0.5-1.4,1.2-2,2
					c-0.2,0.3-0.5,0.8-0.9,1.4c-0.4,0.6-0.7,1.3-1.1,1.9c-0.4,0.7-0.7,1.4-0.9,2.1c-0.3,0.7-0.4,1.4-0.5,2c0,0.3,0,0.6,0.1,0.8
					c-0.1,0-0.1,0-0.2,0.1c-0.5,0.3-0.7,0.3-0.7,0.3c-0.1-0.1-0.2-0.2-0.2-0.4c0-0.2-0.1-0.5,0-0.8c0-0.3,0.1-0.6,0.1-0.7
					c0-0.2,0.1-0.5,0.2-0.8c0.1-0.3,0.2-0.7,0.3-1.1c0.1-0.4,0.3-0.9,0.4-1.3c0.2-0.5,0.3-0.9,0.5-1.4c0.2-0.4,0.4-0.7,0.5-1.1
					c0.2-0.4,0.3-0.7,0.4-1.1l0.4-0.9l-0.6,0.3c-0.1,0-0.2-0.1-0.4,0c-0.2,0-0.4,0.1-0.5,0.3c-0.6-0.5-1.3-0.6-2.1-0.4
					c-0.9,0.2-1.9,0.9-3.2,2l0,0c-0.6,0.6-1.2,1.2-1.7,1.9c-0.5,0.7-1,1.4-1.3,2c-0.3,0.5-0.5,1.1-0.7,1.6c-0.2,0-0.4,0-0.7,0.2
					l-0.9,0.8c-0.4,0.3-0.8,0.7-1.2,1.1c-0.4,0.4-0.9,0.8-1.4,1.1c-0.5,0.3-0.9,0.6-1.3,0.8c-0.4,0.2-0.7,0.3-1,0.3
					c-0.2,0-0.3,0-0.4-0.2c-0.1-0.4-0.1-0.9,0-1.5c0.1-0.7,0.4-1.4,0.7-2.1c0.3-0.7,0.7-1.5,1.1-2.2c0.4-0.7,0.8-1.4,1.3-1.9
					c0.4-0.6,0.9-1.1,1.4-1.5c0.5-0.4,0.9-0.6,1.2-0.7c0.3-0.1,0.4,0,0.5,0.1c0,0,0.1,0.3-0.2,1.1l0,0.1l0,0.1c0,0.1,0,0.3,0.1,0.4
					c0.1,0.1,0.3,0.1,0.4,0.1c0.3,0,0.5-0.2,0.7-0.4l0.1-0.1c0.4-1,0.5-1.7,0.2-2.1c-0.2-0.3-0.6-0.6-1.5-0.4c-0.6,0.1-1.2,0.5-2,1
					c-0.7,0.5-1.4,1.2-2,2c-0.2,0.3-0.5,0.8-0.9,1.4c-0.4,0.6-0.7,1.2-1.1,1.9c-0.3,0.7-0.7,1.4-0.9,2.1c-0.3,0.7-0.4,1.4-0.5,2
					c0,0.6,0.1,1.1,0.5,1.5c0.2,0.2,0.6,0.4,1,0.4c0.2,0,0.5,0,0.8-0.1c0.3,0,0.6-0.1,0.9-0.3c0.3-0.1,0.5-0.3,0.8-0.5
					c0.4-0.3,0.7-0.5,0.9-0.6c0.2-0.1,0.3-0.2,0.5-0.3c0.1-0.1,0.3-0.2,0.4-0.3l0.8-0.7c0.4-0.3,0.8-0.7,1.1-1
					c0.1-0.1,0.2-0.2,0.4-0.3c-0.1,0.3-0.1,0.5-0.1,0.8c-0.1,0.9,0,1.4,0.5,1.6c0.2,0.1,0.3,0.1,0.5,0.1c0.3,0,0.6,0,0.9-0.2
					c0.5-0.2,1.1-0.5,1.8-1c0.6-0.5,1.2-1,1.8-1.5c0.4-0.4,0.8-0.8,1.1-1.2c0.2-0.3,0.5-0.5,0.7-0.8c0,0.2-0.1,0.4-0.1,0.6
					c-0.1,0.5-0.1,0.9-0.1,1.4c0,0.5,0.1,0.9,0.2,1.2c0.2,0.4,0.5,0.6,1,0.6c0,0,0,0,0,0c0.4,0,0.9-0.2,1.7-0.6c0,0,0,0,0.1-0.1
					c0.2,0.2,0.5,0.3,0.9,0.3c0.2,0,0.5,0,0.8-0.1c0.3,0,0.6-0.1,0.9-0.3c0.3-0.1,0.5-0.3,0.8-0.5c0.4-0.3,0.7-0.5,0.9-0.6
					c0.2-0.1,0.3-0.2,0.5-0.3c0.1-0.1,0.3-0.2,0.4-0.3c0.2-0.1,0.4-0.4,0.8-0.7c0.4-0.3,0.8-0.7,1.1-1c0,0,0,0,0,0
					c-0.2,0.7-0.3,1.4-0.3,2c0,0.2,0.1,0.3,0.2,0.4c0.1,0.1,0.2,0.1,0.3,0.1c0.1,0,0.2,0,0.2,0c0.5-0.1,0.6-0.5,0.6-0.7
					c0-0.7,0.2-1.4,0.4-2.2c0.2-0.8,0.5-1.6,0.9-2.4c0.4-0.8,0.7-1.6,1.1-2.4C212.6,16.4,213,15.6,213.4,14.8z M199.7,19.8
					L199.7,19.8c-0.2,0.4-0.4,0.7-0.6,1.1c-0.2,0.3-0.5,0.7-0.8,1.1c-0.3,0.4-0.5,0.7-0.8,1.1c-0.3,0.3-0.6,0.7-1,1.1
					c-0.8,0.7-1.4,1.3-1.9,1.6c-0.6,0.4-1,0.5-1.1,0.5c-0.2,0-0.2,0-0.3-0.2c0-0.2-0.1-0.5,0.1-1.2c0.3-0.9,0.6-1.8,1.1-2.8
					c0.5-0.9,1.1-1.9,2-2.8c0.2-0.2,0.4-0.4,0.7-0.7c0.3-0.3,0.6-0.5,0.9-0.8c0.3-0.2,0.7-0.5,1-0.6c0.3-0.1,0.6-0.2,0.9-0.2
					c0,0,0,0,0,0c0.2,0,0.4,0.1,0.5,0.1c0.1,0.2,0.3,0.3,0.4,0.5l0.1,0.1c0,0,0,0,0,0l-0.4,0.9c-0.1,0.2-0.2,0.5-0.4,0.7L199.7,19.8
					z"/>
				<path class="st3" d="M220.8,16.4c0.1-0.5,0.1-1,0.1-1.3c0-0.4-0.1-0.7-0.2-0.9c-0.1-0.2-0.3-0.4-0.5-0.6
					c-0.2-0.2-0.5-0.4-0.9-0.5c-0.4-0.1-0.8-0.1-1.3,0c-0.5,0.1-1.1,0.3-1.7,0.7c-0.3,0.2-0.6,0.4-0.8,0.6c-0.3,0.3-0.5,0.5-0.7,0.9
					c-0.2,0.3-0.4,0.6-0.6,1c-0.2,0.3-0.4,0.7-0.5,1c-0.2,0.4-0.3,0.8-0.5,1.1c-0.1,0.3-0.3,0.6-0.4,0.9c-0.1,0.3-0.2,0.6-0.3,0.9
					c-0.1,0.3-0.2,0.7-0.2,1.1c-0.1,0.4-0.1,0.9,0,1.4c0.1,0.5,0.3,1,0.6,1.3c0.3,0.3,0.6,0.4,1,0.4c0.2,0,0.3,0,0.5,0
					c0.6-0.1,1.5-0.5,2.5-1.2c0.6-0.5,1.2-1,1.7-1.6c0.5-0.6,0.9-1.2,1.2-1.8c0.3-0.6,0.6-1.2,0.8-1.8
					C220.6,17.5,220.7,16.9,220.8,16.4z M219.2,17.8c-0.2,0.6-0.5,1.1-0.8,1.7c-0.3,0.6-0.7,1.1-1.2,1.6c-0.4,0.5-0.9,0.9-1.3,1.3
					c-0.4,0.2-0.8,0.4-1.2,0.6c-0.4,0.1-0.7,0.1-0.9,0.1c-0.2-0.1-0.4-0.3-0.4-0.7c-0.1-0.4-0.1-0.8,0-1.3c0.1-0.5,0.2-1.1,0.5-1.7
					c0.2-0.6,0.5-1.2,0.8-1.8c0.3-0.6,0.6-1.1,1-1.6c0.4-0.5,0.7-0.9,1-1.2c0.2-0.1,0.4-0.2,0.6-0.3c0.2-0.1,0.4-0.1,0.6-0.2
					c0.1,0,0.3,0,0.4,0c0,0,0.1,0,0.1,0c0.2,0,0.3,0.1,0.4,0.1c0.3,0.1,0.5,0.4,0.7,0.7c0.1,0.3,0.2,0.7,0.2,1.2
					C219.6,16.7,219.4,17.3,219.2,17.8z"/>
				<path class="st3" d="M227.5,18.6c0.2-0.8,0.4-1.5,0.7-2.3c0.3-0.8,0.5-1.6,0.7-2.2c0.2-0.7,0.2-1.3,0.2-1.7
					c-0.1-0.6-0.4-0.9-1-0.8c-0.5,0.1-1,0.4-1.5,0.8c-0.4,0.4-0.9,0.9-1.3,1.5c-0.4,0.6-0.8,1.3-1.2,2c-0.4,0.7-0.8,1.4-1.1,2.1
					c-0.4,0.7-0.7,1.3-1.1,1.9c-0.1,0.1-0.2,0.3-0.2,0.4c0-0.2,0.1-0.4,0.1-0.5c0.1-0.6,0.3-1.1,0.4-1.7c0.2-0.6,0.3-1.1,0.5-1.7
					c0.2-0.6,0.3-1.2,0.5-1.8c0-0.2,0-0.4-0.1-0.4c-0.1-0.1-0.2-0.2-0.5-0.1c-0.3,0-0.5,0.2-0.7,0.5l-0.1,0.1
					c-0.1,0.6-0.3,1.3-0.5,1.9c-0.2,0.6-0.4,1.3-0.5,1.9c-0.2,0.6-0.3,1.3-0.4,1.9c-0.1,0.6-0.2,1.3-0.2,1.9l0,0.1l0,0.1
					c0.1,0.2,0.4,0.3,0.5,0.3c0.2,0,0.4,0,0.6-0.1l0.1-0.1c0.5-0.5,0.9-1.1,1.3-1.8c0.4-0.6,0.8-1.3,1.2-2c0.4-0.7,0.7-1.3,1.1-2
					c0.3-0.6,0.7-1.2,1-1.8c0.3-0.5,0.6-1,0.9-1.3c0.3-0.3,0.5-0.5,0.7-0.7c0,0,0,0.2,0,0.4c0,0.4-0.1,1-0.3,1.6
					c-0.2,0.7-0.4,1.4-0.6,2.2c-0.2,0.8-0.5,1.6-0.6,2.3c-0.2,0.7-0.3,1.4-0.3,1.9c0,0.7,0.2,1.1,0.6,1.3c0.2,0.1,0.5,0.2,0.7,0.3
					c0.2,0.1,0.5,0.1,0.7,0.3c0,0,0.1,0,0.1,0c0.2,0,0.4,0,0.6-0.2c0.2-0.1,0.2-0.3,0.3-0.4c0-0.1,0-0.3-0.1-0.4l-0.1-0.1
					c-0.2-0.1-0.4-0.2-0.6-0.3c-0.2-0.1-0.3-0.2-0.5-0.3l-0.1-0.1c-0.2-0.1-0.3-0.4-0.2-0.8C227.1,20,227.3,19.3,227.5,18.6z"/>
				<path class="st3" d="M219.4,12.4C219.4,12.4,219.4,12.4,219.4,12.4c0.1,0,0.3,0,0.4-0.2c0.1-0.1,0.2-0.2,0.3-0.3
					c0.1-0.1,0.3-0.3,0.4-0.4c0.1-0.1,0.2-0.2,0.3-0.2c0.1,0.1,0.2,0.1,0.3,0.1c0.1,0,0.2-0.1,0.3-0.3c0.1-0.2,0.1-0.4,0-0.6
					c-0.1-0.2-0.4-0.3-0.7-0.2c-0.2,0.1-0.4,0.2-0.6,0.3c-0.2,0.1-0.4,0.3-0.5,0.5c-0.2,0.2-0.3,0.3-0.4,0.4
					c-0.2,0.3-0.2,0.5-0.1,0.6C219.1,12.3,219.3,12.4,219.4,12.4z M220.7,11l0.1,0.3c0,0,0,0,0,0L220.7,11L220.7,11z"/>
				<path class="st3" d="M182.6,29.2c-0.2,0.4-0.6,0.1-0.7-0.2c-0.2-0.5,0.1-1.2,0.2-1.7c0.3-1,0.7-2.1,1.1-3c0.9-2,2-3.8,3.1-5.6
					c0.5-0.7-0.6-1.3-1.1-0.7c-2.2,3-3.5,6.7-6.2,9.3c-0.3,0.3-1.4,1.6-1.9,1.2c-0.5-0.5-0.1-1.7,0.1-2.3c0.5-1.8,1.6-3.4,2.4-5.1
					c0.3-0.6-0.5-1.4-1-0.8c-0.4,0.4-0.8,0.9-1.3,1.2c-0.4,0.3-0.3,0.9,0,1.2c-0.4,0.8-0.8,1.6-1.1,2.4c-0.4,1.2-1.1,3.5,0.1,4.4
					c0.6,0.4,1.2,0.6,1.9,0.2c0.7-0.4,1.4-1,1.9-1.6c0.2-0.2,0.4-0.5,0.6-0.7c-0.2,0.9-0.3,1.8,0.2,2.5c0.7,1.1,2.1,1,2.8,0
					C184.2,29.2,183.1,28.5,182.6,29.2z"/>
			</g>
		</g>
	</g>
</g>
</svg>
